<svg width="64" height="64" viewBox="0 0 64 64" xmlns="http://www.w3.org/2000/svg">
  <defs>
    <linearGradient id="grad" x1="0%" y1="0%" x2="100%" y2="100%">
      <stop offset="0%" style="stop-color:#FACC15;stop-opacity:1" />
      <stop offset="100%" style="stop-color:#CA8A04;stop-opacity:1" />
    </linearGradient>
  </defs>
  <rect width="64" height="64" rx="16" fill="url(#grad)" />
  <g transform="translate(14, 14) scale(1.5)">
    <path stroke="black" stroke-width="2" stroke-linecap="round" stroke-linejoin="round" fill="none" d="M7 4v16M17 4v16M3 8h4m10 0h4M3 12h18M3 16h4m10 0h4M4 20h16a1 1 0 001-1V5a1 1 0 00-1-1H4a1 1 0 00-1 1v14a1 1 0 001 1z" />
  </g>
</svg>
